<?xml version="1.0" encoding="UTF-8"?>
<svg xmlns="http://www.w3.org/2000/svg" version="1.1" viewBox="0 0 509.49 253.49">
  <defs>
    <style>
      .cls-1 {
        fill: #364570;
      }

      .cls-1, .cls-2 {
        stroke: #231f20;
        stroke-miterlimit: 10;
      }

      .cls-2 {
        fill: #ebeadf;
      }
    </style>
  </defs>
  <!-- Generator: Adobe Illustrator 28.6.0, SVG Export Plug-In . SVG Version: 1.2.0 Build 709)  -->
  <g>
    <g id="Layer_1">
      <polygon class="cls-1" points=".8 .75 1.54 252.77 507.2 123.95 .8 .75"/>
      <g>
        <path class="cls-2" d="M96.46,120.33c0-10.5-8.25-18.2-19.45-18.2s-19.45,7.7-19.45,18.2,8.25,18.2,19.45,18.2,19.45-7.7,19.45-18.2ZM67.55,120.33c0-6.05,4.15-10,9.45-10s9.45,3.95,9.45,10-4.15,10-9.45,10-9.45-3.95-9.45-10Z"/>
        <path class="cls-2" d="M170.69,88.2c0-4.16-2.4-7.1-6.27-8.48,2.94-1.52,4.61-4.17,4.61-7.45,0-5.29-4.41-8.97-13.42-8.97h-17.54v34.3h18.52c9.21,0,14.11-3.48,14.11-9.41ZM147.66,70.31h6.66c3.23,0,4.9,1.13,4.9,3.28s-1.67,3.33-4.9,3.33h-6.66v-6.61ZM147.66,90.6v-6.96h8.13c3.33,0,5.1,1.13,5.1,3.48s-1.76,3.48-5.1,3.48h-8.13Z"/>
        <path class="cls-2" d="M198.78,125.52c-1.51-8.22-8.53-12.37-11.47-14.11-8.25-4.87-18.79-5.18-26.16-1.99-3.96,1.72-8.81,4.21-8.81,4.21-3.34,1.72-5.84,3.14-9.63,3.79-.04.01-.08.01-.12.02-1.79-6.53-7.77-11.32-14.87-11.32-.61,0-1.21.04-1.8.11-2.19-6.31-2.93-11.7-3.14-15.87-.62-12.6,3.49-18.04-.39-26.09-1.12-2.31-4.58-8.33-11.52-10.15-8.31-2.18-15.06,3.38-15.6,3.85-6.37,5.42-6.45,13.57-6.48,16.99-.09,9.57,4.91,18.86,11.36,23.64,3.47,2.58,8.04,5.53,8.04,5.53,3.16,2.04,5.65,3.49,8.1,6.45.09.11.18.22.26.33-2.65,2.77-4.26,6.52-4.26,10.64,0,3.35,1.06,6.45,2.88,8.97-4.43,5.16-8.8,8.56-12.35,10.84-10.6,6.85-17.36,6-22.39,13.39-1.45,2.12-4.93,8.13-3.03,15.05,2.26,8.29,10.45,11.35,11.13,11.59,7.87,2.8,14.97-1.21,17.95-2.89,8.34-4.7,13.88-13.68,14.8-21.66.49-4.29.76-9.73.76-9.73.19-3.75.2-6.63,1.54-10.23.05-.14.11-.29.16-.42,1.27.33,2.6.51,3.98.51,6.23,0,11.6-3.69,14.04-9.01,6.51,1.26,11.52,3.3,15.21,5.19,11.23,5.76,13.88,12.04,22.79,12.7,2.56.19,9.5.2,14.55-4.9,6.05-6.11,4.6-14.73,4.47-15.43ZM127.72,130.11c-4.74,0-8.57-3.83-8.57-8.57s3.83-8.57,8.57-8.57,8.57,3.84,8.57,8.57-3.84,8.57-8.57,8.57Z"/>
        <polygon class="cls-2" points="167.3 148.35 156.39 148.35 142.84 162.9 142.84 148.35 133.04 148.35 133.04 183.35 142.84 183.35 142.84 174.6 146.54 170.65 156.54 183.35 168.05 183.35 152.99 163.85 167.3 148.35"/>
      </g>
    </g>
  </g>
</svg>